<?xml version="1.0" standalone="no"?>
<!DOCTYPE svg PUBLIC "-//W3C//DTD SVG 20010904//EN"
 "http://www.w3.org/TR/2001/REC-SVG-20010904/DTD/svg10.dtd">
<svg version="1.0" xmlns="http://www.w3.org/2000/svg"
 width="480.000000pt" height="480.000000pt" viewBox="0 0 480.000000 480.000000"
 preserveAspectRatio="xMidYMid meet">

<g transform="translate(0.000000,480.000000) scale(0.100000,-0.100000)"
fill="#000000" stroke="none">
<path d="M120 4787 c0 -8 7 -27 14 -43 8 -16 17 -47 20 -69 2 -22 5 -40 7 -40
10 0 3 -54 -8 -67 -14 -16 -13 -18 13 -28 l29 -11 -25 -19 c-25 -19 -25 -20
-3 -20 19 0 22 -4 17 -29 -4 -19 0 -38 10 -52 11 -16 16 -45 16 -96 0 -83 -12
-123 -40 -130 -18 -5 -20 -11 -14 -57 3 -28 8 -57 10 -64 2 -8 -1 -43 -8 -80
-10 -57 -16 -67 -44 -84 -26 -15 -32 -27 -38 -65 -13 -95 -8 -121 28 -161 34
-37 34 -37 56 -17 28 26 51 28 57 4 6 -21 19 -25 25 -7 12 34 26 -13 31 -103
4 -55 11 -107 16 -113 13 -15 57 -13 54 3 -4 15 8 13 30 -4 14 -10 19 -28 20
-72 1 -52 -4 -71 -49 -164 -100 -202 -114 -236 -114 -265 0 -16 -9 -58 -20
-92 -11 -35 -20 -75 -20 -90 0 -14 -8 -33 -17 -42 -16 -15 -19 -14 -40 17 -13
19 -23 36 -23 39 0 7 -48 72 -76 104 -13 14 -24 41 -27 60 -2 19 -5 -67 -5
-192 l-2 -228 49 27 c42 24 53 26 87 18 l39 -10 48 -195 c26 -107 49 -204 52
-215 4 -19 12 -20 157 -20 84 0 172 -3 196 -8 25 -4 41 -4 38 1 -3 5 -31 12
-62 15 -32 3 -63 12 -70 19 -20 20 -29 268 -15 408 7 63 19 148 27 189 15 71
15 74 -5 87 -25 18 -34 50 -66 224 -87 479 -95 784 -29 1020 l17 60 76 0 c42
0 121 -7 177 -15 97 -13 468 -103 604 -145 77 -23 81 -24 75 -7 -12 33 247
167 324 167 23 0 34 7 45 29 21 40 105 113 170 147 30 16 53 30 52 32 -2 2
-36 -10 -77 -25 -66 -26 -76 -34 -118 -91 -37 -51 -52 -64 -85 -72 -56 -14
-143 -55 -249 -117 -49 -29 -95 -53 -103 -53 -8 0 -89 21 -181 46 -336 92
-442 113 -613 123 l-105 6 -6 235 c-4 129 -10 274 -14 323 l-7 87 -154 0
c-122 0 -154 -3 -154 -13z m110 -181 c0 -27 -17 -43 -30 -30 -10 11 6 54 20
54 5 0 10 -11 10 -24z m175 -1525 c-2 -35 -15 -36 -15 -2 0 18 4 30 8 27 5 -3
8 -14 7 -25z m12 -63 c-3 -8 -6 -5 -6 6 -1 11 2 17 5 13 3 -3 4 -12 1 -19z m6
-143 c-3 -9 -8 -14 -10 -11 -3 3 -2 9 2 15 9 16 15 13 8 -4z m-14 -55 c4 0 7
-17 7 -37 1 -114 18 -283 29 -283 17 0 25 -109 18 -242 -5 -94 -8 -108 -23
-108 -10 0 -22 6 -28 13 -10 12 -30 191 -29 257 0 19 -3 120 -7 224 -8 176 -7
189 9 183 9 -4 20 -7 24 -7z m36 -30 c-2 -27 -15 -38 -15 -13 0 16 8 33 15 33
1 0 1 -9 0 -20z m71 -15 c3 -14 3 -40 0 -58 -3 -17 -11 -68 -16 -112 -15 -116
-20 -133 -30 -115 -13 23 -14 221 -2 250 6 14 13 33 16 43 8 25 25 21 32 -8z"/>
<path d="M4178 4757 c-34 -84 -38 -123 -34 -293 5 -167 9 -202 30 -216 18 -13
26 -9 59 26 39 43 107 69 125 49 9 -9 9 -13 2 -13 -7 0 -9 -8 -5 -20 3 -10 1
-29 -5 -40 -23 -43 -42 -354 -35 -585 4 -121 11 -224 16 -230 5 -5 9 -44 9
-87 0 -60 3 -78 14 -78 15 0 29 -26 18 -33 -4 -2 -1 -2 6 0 22 5 34 -7 22 -22
-12 -14 -40 -9 -52 9 -5 6 -8 2 -8 -11 0 -12 5 -25 11 -29 6 -3 9 -17 6 -31
-3 -14 2 -31 11 -40 14 -14 17 -13 34 6 11 15 15 32 12 50 -3 16 -1 31 4 35
15 9 60 -13 67 -33 19 -47 37 -339 32 -516 -5 -190 1 -258 18 -205 4 14 15 30
23 36 13 10 14 26 3 135 -6 68 -14 144 -16 169 -2 25 -9 144 -15 265 -6 121
-12 227 -15 235 -2 8 -9 69 -15 135 -6 66 -17 145 -25 175 -15 58 -20 180 -7
180 4 0 17 -33 29 -72 12 -40 31 -98 41 -128 55 -153 100 -437 94 -600 -8
-266 -25 -450 -48 -545 -14 -55 -29 -149 -34 -210 -5 -60 -16 -135 -25 -165
-9 -30 -20 -77 -24 -105 -4 -27 -14 -66 -24 -85 -10 -23 -20 -86 -27 -183 -13
-182 -10 -168 -42 -189 -22 -14 -29 -28 -34 -67 -4 -34 -14 -57 -30 -72 -48
-45 -25 -68 46 -44 43 14 50 20 50 43 1 86 28 262 40 262 4 0 10 10 13 22 12
46 22 3 22 -100 0 -82 4 -115 18 -141 23 -46 22 -59 -9 -67 -16 -4 -24 -12
-22 -23 3 -12 15 -16 48 -16 25 0 52 -4 60 -10 22 -14 80 -17 95 -5 9 7 16 6
25 -5 17 -21 27 -19 34 7 l7 23 9 -23 c15 -36 20 -26 20 41 0 46 -3 58 -11 47
-7 -11 -8 -1 -4 35 4 28 9 187 11 355 5 284 4 312 -16 410 -12 58 -25 114 -30
125 -9 20 -32 144 -50 275 -5 36 -12 84 -16 107 -11 72 17 131 32 66 3 -16 12
-44 19 -63 7 -19 18 -74 25 -122 7 -49 17 -88 23 -88 5 0 7 17 4 38 -4 20 -15
150 -26 287 -31 388 -40 485 -50 560 -6 39 -13 97 -16 130 -4 33 -18 93 -31
134 -29 87 -30 124 -3 63 10 -24 27 -51 38 -60 18 -17 72 -159 90 -237 6 -26
9 90 10 343 1 233 -3 381 -8 377 -19 -11 -27 165 -22 428 2 81 7 150 12 153 5
3 9 24 9 47 -1 39 -2 41 -15 23 -14 -19 -15 -18 -15 12 l0 32 -282 0 -283 0
-17 -43z m612 -3160 l0 -50 -20 23 c-20 23 -25 55 -14 84 12 32 34 -4 34 -57z
m-140 -227 c0 -15 -7 -20 -25 -20 -23 0 -24 2 -15 20 6 11 17 20 25 20 8 0 15
-9 15 -20z"/>
<path d="M4791 4664 c0 -11 3 -14 6 -6 3 7 2 16 -1 19 -3 4 -6 -2 -5 -13z"/>
<path d="M3570 4650 c-21 -7 -18 -8 18 -9 26 -1 41 3 37 9 -7 11 -19 11 -55 0z"/>
<path d="M3427 4614 c-44 -14 -77 -27 -75 -29 2 -2 46 9 98 25 52 16 86 29 75
29 -11 0 -55 -11 -98 -25z"/>
<path d="M3261 4555 c-35 -13 -68 -29 -75 -35 -6 -7 7 -4 29 5 22 9 59 24 83
32 23 8 42 17 42 19 0 7 -14 4 -79 -21z"/>
<path d="M1900 4560 c0 -5 5 -10 10 -10 6 0 10 5 10 10 0 6 -4 10 -10 10 -5 0
-10 -4 -10 -10z"/>
<path d="M1683 4534 c-3 -8 -1 -20 6 -27 13 -13 16 -10 25 21 6 16 3 22 -9 22
-8 0 -18 -7 -22 -16z"/>
<path d="M3472 4475 c-207 -85 -515 -287 -499 -328 3 -8 45 -33 94 -56 144
-69 305 -178 433 -293 l65 -58 6 27 c17 74 4 474 -22 647 -7 54 -7 71 3 77 7
4 10 10 7 13 -2 3 -42 -10 -87 -29z"/>
<path d="M1665 4440 c-10 -16 13 -30 45 -29 15 0 19 3 10 6 -8 3 -22 12 -32
20 -12 11 -18 11 -23 3z"/>
<path d="M2975 4401 c-56 -30 -81 -49 -132 -98 -19 -18 -37 -33 -41 -33 -5 0
-17 -8 -28 -19 -41 -37 -61 -43 -96 -26 l-33 16 31 -29 c24 -23 38 -28 62 -24
19 2 32 10 32 18 0 20 50 64 152 135 47 33 92 67 98 75 16 18 15 18 -45 -15z"/>
<path d="M3985 4415 c-22 -8 -41 -15 -42 -15 -2 0 -3 -7 -3 -15 0 -18 22 -19
90 -3 37 8 50 16 48 27 -4 21 -44 24 -93 6z"/>
<path d="M2210 4403 c-74 -12 -166 -36 -189 -49 -14 -8 -18 -13 -8 -10 10 3
43 13 75 23 86 26 250 24 321 -5 30 -12 57 -20 59 -18 11 11 -187 69 -222 65
-6 -1 -22 -4 -36 -6z"/>
<path d="M3968 4343 c-10 -2 -18 -11 -18 -18 0 -19 38 -29 64 -17 11 6 34 13
49 17 15 3 25 10 22 15 -6 10 -84 12 -117 3z"/>
<path d="M2500 4326 c0 -3 9 -10 20 -16 11 -6 20 -8 20 -6 0 3 -9 10 -20 16
-11 6 -20 8 -20 6z"/>
<path d="M3721 4280 c0 -14 4 -32 9 -40 9 -13 10 -13 9 0 -1 8 -5 26 -9 40
l-8 25 -1 -25z"/>
<path d="M3979 4232 c-1 -4 -3 -28 -4 -54 -1 -26 -10 -60 -20 -75 -15 -22 -18
-50 -19 -155 -1 -113 -3 -129 -20 -141 -11 -8 -16 -19 -12 -25 12 -19 71 -14
90 7 51 56 115 47 117 -17 2 -59 13 -87 34 -87 11 0 24 9 30 20 5 11 21 37 34
58 22 36 23 43 13 105 -9 53 -17 72 -42 95 -25 23 -28 32 -20 48 15 28 -3 87
-40 127 -28 31 -34 33 -80 29 -52 -5 -69 8 -25 19 14 3 25 12 25 19 0 13 -59
39 -61 27z"/>
<path d="M4781 4200 c0 -8 4 -22 9 -30 12 -18 12 -2 0 25 -6 13 -9 15 -9 5z"/>
<path d="M3850 3945 c0 -39 4 -65 11 -65 6 0 9 24 7 65 -1 36 -6 65 -10 65 -5
0 -8 -29 -8 -65z"/>
<path d="M603 3962 c10 -10 15 -21 12 -24 -3 -3 -6 -103 -5 -221 0 -256 20
-431 66 -599 6 -21 24 -24 24 -4 0 22 121 215 195 311 38 50 132 152 207 228
143 142 160 152 209 126 11 -6 25 -9 31 -7 14 5 -199 89 -322 128 -80 24 -369
80 -419 80 -11 0 -11 -3 2 -18z"/>
<path d="M3730 3604 c0 -3 24 -38 54 -77 29 -40 61 -85 71 -100 10 -15 20 -26
22 -23 7 6 -18 46 -59 94 -20 24 -42 59 -48 78 -6 19 -18 34 -26 34 -8 0 -14
-3 -14 -6z"/>
<path d="M290 3389 c0 -12 5 -19 12 -17 18 6 20 25 3 31 -10 5 -15 0 -15 -14z"/>
<path d="M3885 3380 c3 -5 8 -10 11 -10 2 0 4 5 4 10 0 6 -5 10 -11 10 -5 0
-7 -4 -4 -10z"/>
<path d="M46 3372 c-2 -4 -1 -14 5 -22 7 -12 9 -10 9 8 0 23 -5 28 -14 14z"/>
<path d="M2001 3286 c2 -2 15 -9 29 -15 24 -11 24 -11 6 3 -16 13 -49 24 -35
12z"/>
<path d="M3946 3277 c3 -10 9 -15 12 -12 3 3 0 11 -7 18 -10 9 -11 8 -5 -6z"/>
<path d="M3233 3260 c-50 -10 -72 -21 -138 -70 -123 -91 -207 -250 -221 -420
-7 -77 -6 -80 14 -80 28 0 32 10 47 95 19 110 76 216 160 301 83 83 128 100
250 92 180 -12 313 -133 391 -358 21 -60 25 -65 55 -68 l32 -3 -7 41 c-18 115
-108 283 -186 349 -85 72 -235 133 -320 130 -19 -1 -54 -5 -77 -9z"/>
<path d="M2071 3244 c6 -8 18 -14 26 -14 20 0 8 16 -17 23 -17 4 -19 3 -9 -9z"/>
<path d="M3970 3230 c6 -11 13 -20 16 -20 2 0 0 9 -6 20 -6 11 -13 20 -16 20
-2 0 0 -9 6 -20z"/>
<path d="M2120 3226 c0 -3 9 -10 20 -16 11 -6 20 -8 20 -6 0 3 -9 10 -20 16
-11 6 -20 8 -20 6z"/>
<path d="M142 3140 c0 -14 2 -19 5 -12 2 6 2 18 0 25 -3 6 -5 1 -5 -13z"/>
<path d="M4210 3075 c-19 -33 -44 -87 -56 -120 -12 -32 -26 -61 -31 -62 -9 -3
-52 103 -68 170 -4 15 -11 29 -15 32 -9 6 8 -60 40 -150 70 -199 110 -583 80
-775 -23 -143 -77 -352 -120 -460 -82 -203 -230 -442 -347 -558 -24 -24 -43
-45 -43 -48 0 -2 18 6 40 17 23 12 39 26 37 33 -4 13 8 26 51 51 17 11 32 25
32 31 0 6 6 17 14 23 10 9 16 8 26 -3 6 -9 9 -19 6 -24 -3 -6 2 -16 11 -23 9
-8 29 -41 44 -73 27 -56 27 -61 12 -78 -23 -25 -34 -22 -27 7 5 21 -1 32 -32
60 -21 19 -42 35 -46 35 -15 0 3 -104 20 -118 13 -10 8 -12 -34 -12 -27 0 -73
-3 -102 -7 -49 -5 -54 -9 -68 -42 -15 -35 -15 -36 13 -58 15 -12 36 -30 46
-38 11 -10 33 -15 61 -14 23 2 47 -1 54 -5 32 -20 145 68 157 122 11 51 29 59
80 33 25 -12 45 -26 45 -31 0 -9 -43 -45 -63 -54 -9 -3 -8 -8 3 -15 26 -20
130 0 200 38 8 4 41 2 75 -5 33 -6 104 -12 159 -11 82 0 100 -3 108 -16 5 -10
17 -17 27 -17 10 0 24 -7 31 -15 7 -8 23 -15 36 -15 13 0 24 -6 24 -13 0 -20
-22 -37 -48 -37 -21 0 -23 -2 -11 -16 18 -22 84 -54 112 -54 30 0 57 29 57 61
0 17 -10 30 -33 42 -40 22 -64 56 -47 67 17 11 49 1 63 -21 11 -15 13 -6 14
63 l0 80 -46 -8 c-69 -12 -358 -3 -382 12 -6 3 -7 21 -3 40 8 41 -2 84 -19 84
-13 0 -38 -41 -56 -92 -12 -31 -23 -35 -40 -14 -9 11 -9 20 -2 35 14 26 14 77
-1 118 -11 31 -10 34 27 66 l39 34 -22 30 c-12 17 -31 33 -43 36 -17 5 -24 -3
-43 -41 -44 -95 -76 -121 -76 -64 0 80 53 175 92 164 21 -5 21 -4 15 139 -4
79 -11 203 -17 274 -19 262 -21 300 -11 315 14 20 20 11 31 -51 5 -30 12 -67
15 -84 3 -16 10 -57 14 -91 5 -34 13 -70 19 -81 6 -10 18 -63 28 -117 13 -72
20 -93 27 -80 16 28 -15 455 -37 529 -8 24 -12 82 -10 148 2 59 1 107 -2 107
-3 0 -19 -13 -34 -30 -15 -16 -37 -30 -49 -30 -17 0 -21 6 -21 33 0 38 16 98
28 106 20 13 90 178 92 216 3 68 0 105 -8 105 -5 0 -30 -38 -56 -85 -35 -63
-53 -85 -68 -85 -25 0 -24 9 32 220 22 85 39 171 38 190 l-3 35 -35 -60z m-85
-1644 c-6 -14 -8 -14 -21 3 -20 27 -18 73 4 85 15 8 17 5 20 -31 2 -22 0 -48
-3 -57z m-151 -200 c10 -11 16 -29 14 -42 l-3 -22 -32 27 c-18 15 -33 34 -33
42 0 20 34 17 54 -5z"/>
<path d="M4402 3000 c-14 -23 -16 -69 -2 -90 5 -8 10 -12 12 -10 28 44 34 73
22 104 -8 21 -17 20 -32 -4z"/>
<path d="M1428 2931 c-95 -38 -221 -152 -268 -243 -46 -89 -80 -238 -80 -355
0 -66 3 -69 47 -57 17 5 23 15 27 48 23 198 26 211 71 302 51 106 113 169 210
215 47 23 74 29 125 29 167 0 288 -72 395 -233 37 -56 55 -66 84 -48 12 8 8
19 -20 66 -50 82 -120 166 -167 198 -22 16 -73 42 -114 59 -97 40 -237 49
-310 19z"/>
<path d="M2200 2856 c0 -2 8 -10 18 -17 15 -13 16 -12 3 4 -13 16 -21 21 -21
13z"/>
<path d="M2266 2810 c5 -5 36 -19 68 -30 72 -24 174 -26 240 -4 62 21 54 28
-9 8 -64 -20 -170 -14 -249 15 -33 11 -55 16 -50 11z"/>
<path d="M4399 2659 c-14 -32 -23 -67 -22 -93 9 -265 19 -447 30 -576 3 -41 6
-96 7 -122 1 -27 5 -49 11 -50 13 -4 25 58 30 152 2 41 9 111 15 155 7 44 17
127 23 183 7 57 15 100 20 96 15 -15 6 8 -18 46 -16 25 -27 60 -30 92 -12 134
-17 168 -29 168 -7 0 -23 -23 -37 -51z"/>
<path d="M0 2198 l0 -173 21 32 c25 39 72 57 117 43 29 -8 32 -7 22 5 -7 9
-29 15 -51 15 -38 0 -39 1 -53 53 -9 28 -23 85 -31 125 -9 39 -18 72 -21 72
-2 0 -4 -78 -4 -172z"/>
<path d="M2780 2289 c-140 -72 -298 -102 -458 -86 -79 8 -104 5 -89 -9 3 -4
68 -7 144 -7 113 -1 153 3 220 21 45 12 91 22 102 22 24 0 93 -69 128 -127 14
-24 27 -43 30 -43 9 0 -3 225 -13 242 -8 14 -16 12 -64 -13z"/>
<path d="M0 1405 l0 -560 93 1 c50 0 102 -4 114 -9 12 -5 30 -6 40 -2 16 7 15
9 -7 15 -23 7 -22 8 10 9 19 1 71 10 115 21 56 13 83 15 92 8 10 -8 13 -7 13
4 0 7 9 21 20 31 37 31 18 92 -38 121 -42 21 -129 36 -222 37 -75 1 -90 5
-127 29 -23 15 -40 30 -37 33 3 3 -6 13 -21 23 -35 23 -20 35 30 24 68 -16 92
-12 130 21 57 51 50 62 -52 83 -31 6 -58 16 -60 22 -7 21 90 34 102 14 3 -5
19 -10 34 -10 18 0 34 -8 43 -22 12 -18 23 -21 71 -20 32 1 66 6 76 12 11 5
32 10 47 10 15 0 38 10 51 22 16 15 40 23 80 26 41 3 62 10 73 25 16 19 17 19
53 -19 51 -55 65 -83 47 -94 -8 -6 -25 -10 -37 -10 -12 0 -23 -5 -25 -12 -2
-6 -25 -12 -50 -13 -67 -3 -76 -13 -34 -41 42 -29 51 -29 75 -5 17 17 22 17
57 4 22 -8 55 -11 77 -8 36 5 41 2 125 -78 194 -186 436 -339 687 -433 55 -20
104 -40 108 -44 4 -4 -27 -17 -70 -29 -43 -12 -134 -50 -203 -83 -97 -48 -137
-74 -177 -115 -42 -43 -53 -61 -53 -87 0 -35 -5 -38 -122 -80 -52 -19 -67 -41
-38 -56 23 -12 308 -13 595 0 193 8 251 13 480 41 44 5 249 16 455 24 399 15
447 18 690 41 328 30 375 35 456 49 173 31 179 63 15 84 -67 9 -77 8 -102 -10
-126 -89 -467 -115 -842 -64 -261 35 -317 47 -317 67 0 5 -15 -2 -32 -15 -203
-153 -978 -244 -1175 -139 -28 15 -53 41 -53 53 0 6 26 37 57 70 45 47 81 72
164 114 121 60 262 107 329 109 25 0 90 -9 145 -21 141 -30 185 -36 185 -25 0
5 -33 14 -72 21 -277 48 -501 132 -752 283 -256 155 -458 349 -582 561 -19 33
-34 63 -32 67 2 4 43 -15 91 -43 48 -27 90 -47 93 -44 6 5 -87 63 -209 131
-29 16 -72 42 -96 58 -56 37 -182 101 -188 95 -2 -3 -1 -27 4 -53 13 -77 7
-93 -43 -116 -48 -21 -115 -21 -121 -1 -7 19 58 53 102 53 29 0 36 3 28 11 -9
9 -23 9 -58 -1 -25 -7 -48 -17 -51 -21 -3 -5 -14 -9 -24 -9 -22 0 -35 39 -70
199 -24 108 -26 112 -44 105 -18 -7 -86 53 -102 91 -11 25 -13 -58 -14 -530z"/>
<path d="M110 1886 c0 -9 5 -16 10 -16 6 0 10 4 10 9 0 6 -4 13 -10 16 -5 3
-10 -1 -10 -9z"/>
<path d="M2695 1617 c-27 -15 -58 -22 -97 -21 -32 0 -52 -4 -45 -8 33 -21 161
7 181 41 9 13 10 14 -39 -12z"/>
<path d="M4766 1155 c-15 -8 -51 -16 -80 -17 l-51 -1 45 -4 c25 -2 54 -7 65
-12 51 -23 55 -22 55 14 0 19 -1 35 -2 35 -2 0 -16 -7 -32 -15z"/>
<path d="M3477 1149 c-10 -6 -25 -8 -33 -5 -9 3 -12 1 -9 -4 9 -14 28 -12 51
5 22 17 17 19 -9 4z"/>
<path d="M3614 1068 l-19 -23 23 19 c21 18 27 26 19 26 -2 0 -12 -10 -23 -22z"/>
<path d="M3526 989 c-173 -155 -365 -263 -611 -344 -168 -55 -337 -98 -435
-111 -55 -7 -61 -15 -28 -38 26 -19 47 -21 30 -4 -20 20 -14 27 26 33 111 18
273 60 392 102 159 56 197 58 345 21 102 -26 370 -127 408 -153 25 -17 41 -20
32 -5 -15 24 -347 154 -463 181 -48 11 -90 24 -94 28 -4 3 24 23 62 43 38 20
107 62 152 93 217 146 243 166 237 184 -3 8 -22 -2 -53 -30z"/>
<path d="M695 1003 c-43 -8 -73 -25 -85 -48 -7 -13 -26 -29 -42 -34 -33 -12
-47 -39 -27 -52 19 -12 71 0 85 19 9 12 24 14 68 9 54 -5 58 -4 68 19 22 49
-15 96 -67 87z"/>
<path d="M4240 801 c0 -9 48 -21 86 -21 15 0 24 6 24 15 0 12 -13 15 -55 15
-30 0 -55 -4 -55 -9z"/>
<path d="M1460 590 c0 -5 16 -10 36 -10 21 0 33 4 29 10 -3 6 -19 10 -36 10
-16 0 -29 -4 -29 -10z"/>
<path d="M603 303 c-30 -30 -43 -52 -43 -71 0 -26 4 -24 61 35 55 57 67 85 36
82 -7 -1 -31 -21 -54 -46z"/>
<path d="M1274 126 c-17 -6 -38 -17 -47 -24 -21 -18 -87 -24 -104 -10 -9 7
-22 7 -43 -2 -23 -10 -37 -10 -55 -2 -21 10 -28 7 -60 -29 -19 -22 -33 -44
-30 -49 4 -6 95 -10 223 -10 l217 1 -28 24 c-15 14 -35 25 -43 25 -20 0 -18
17 6 47 34 44 25 51 -36 29z m-224 -92 c0 -8 -4 -14 -10 -14 -5 0 -10 9 -10
21 0 11 5 17 10 14 6 -3 10 -13 10 -21z"/>
<path d="M205 75 c-3 -14 -7 -36 -10 -50 l-5 -25 202 0 c184 1 205 2 225 19
47 39 15 68 -54 49 -20 -5 -47 -17 -60 -25 -29 -19 -61 -10 -43 12 11 13 9 15
-16 13 -16 -1 -36 2 -44 7 -24 15 -108 14 -114 -2 -8 -19 -34 -16 -48 7 -17
27 -27 25 -33 -5z"/>
<path d="M103 69 c-5 -19 -12 -21 -52 -17 -45 4 -46 4 -47 -24 l-1 -28 79 0
c44 0 78 3 76 8 -2 4 -12 24 -21 45 -20 42 -27 46 -34 16z"/>
<path d="M1397 63 c-13 -12 -7 -33 8 -33 8 0 15 -7 15 -15 0 -11 11 -15 35
-15 33 0 35 2 25 20 -6 11 -24 27 -40 35 -33 17 -34 17 -43 8z"/>
<path d="M4153 33 c-24 -9 -14 -33 13 -33 24 0 25 2 13 18 -7 9 -13 18 -14 18
0 1 -6 -1 -12 -3z"/>
<path d="M730 10 c-12 -8 -9 -10 13 -10 16 0 26 4 22 10 -8 12 -16 12 -35 0z"/>
</g>
</svg>
